#!OML:ASF X:\für Bonn\!DataBase\2005_08_12_Daniel\c3d\Daniel.ASF
:FULLY-SPECIFIED
:DEGREES
65
root 8.97721 16.3999 0.312357 -17.4069 83.2694 -390.86
lowerback 23.9693 -0.559316 3.10674
upperback 0.45334 -0.0472198 -2.03851
thorax -12.9878 -0.262437 -4.10304
lowerneck 0.195114 0.72224 -4.61681
upperneck -9.30062 0.933538 -0.290093
head -3.0305 0.688351 0.674647
rclavicle 1.31198e-014 2.94201e-014
rhumerus -6.62299 22.5444 -99.5666
rradius 59.6001
rwrist 1.6131
rhand -31.975 24.1183
rfingers 7.12502
rthumb -5.22459 -5.79734
lclavicle 1.31198e-014 2.94201e-014
lhumerus -13.732 -6.67347 88.421
lradius 77.6918
lwrist 20.0649
lhand -10.5384 -12.2
lfingers 7.12502
lthumb 15.4651 17.2014
rfemur -27.0252 4.21794 25.4896
rtibia 57.2824
rfoot -30.9939 -1.35024
rtoes -15.3501
lfemur -25.6195 -1.0368 -19.0241
ltibia 63.7794
lfoot -35.5923 7.18931
ltoes -19.255
66
root 9.23094 16.5764 0.321879 -16.3139 82.9529 -389.559
lowerback 23.0535 -0.477313 3.27836
upperback -0.00205935 0.0497519 -2.12912
thorax -12.9955 -0.250191 -4.32814
lowerneck 0.62797 0.870675 -4.87494
upperneck -8.14231 1.0972 -0.106259
head -2.72685 0.736766 0.773917
rclavicle -5.56597e-015 -1.59028e-014
rhumerus -4.37469 25.0717 -98.8932
rradius 61.5917
rwrist 2.02987
rhand -32.4795 25.298
rfingers 7.12502
rthumb -5.71172 -4.60506
lclavicle -5.56597e-015 -1.59028e-014
lhumerus -12.4898 -8.45033 88.0652
lradius 81.444
lwrist 19.9203
lhand -10.5006 -12.055
lfingers 7.12502
lthumb 15.5015 17.3436
rfemur -24.4345 4.44847 25.3588
rtibia 54.3638
rfoot -28.986 -1.28855
rtoes -14.5608
lfemur -23.4444 -0.264553 -19.0028
ltibia 61.4219
lfoot -33.1417 6.49845
ltoes -18.3703
67
root 9.50972 16.7589 0.33053 -15.7176 82.6303 -388.729
lowerback 21.9065 -0.392069 3.55082
upperback -0.442153 0.171395 -2.21521
thorax -12.8448 -0.227792 -4.60644
lowerneck 1.39412 1.0276 -5.19986
upperneck -7.1279 1.25076 0.11793
head -2.53875 0.784979 0.89692
rclavicle -1.47101e-014 7.15625e-015
rhumerus -2.29594 27.3946 -98.0561
rradius 63.3308
rwrist 2.1913
rhand -33.1609 26.8184
rfingers 7.12502
rthumb -6.36956 -3.06584
lclavicle -1.47101e-014 7.15625e-015
lhumerus -11.6693 -10.1927 87.6671
lradius 84.9833
lwrist 19.6514
lhand -10.3329 -12.2123
lfingers 7.12502
lthumb 15.663 17.1737
rfemur -21.6977 4.50346 25.2362
rtibia 51.2478
rfoot -26.5103 -1.0893
rtoes -13.7276
lfemur -21.1815 0.332145 -18.9371
ltibia 59.0642
lfoot -30.1735 5.82704
ltoes -17.3085
68
root 9.81786 16.9486 0.340067 -14.9322 82.2936 -387.701
lowerback 20.4404 -0.271492 3.78978
upperback -0.80367 0.32336 -2.27575
thorax -12.4078 -0.175586 -4.83149
lowerneck 2.25051 1.20826 -5.7515
upperneck -6.10951 1.42517 0.447544
head -2.37448 0.847013 1.09215
rclavicle -2.78299e-015 -1.27222e-014
rhumerus -0.148744 29.655 -96.8219
rradius 64.9524
rwrist 1.85364
rhand -33.9058 28.2825
rfingers 7.12502
rthumb -7.0886 -1.57879
lclavicle -2.78299e-015 -1.27222e-014
lhumerus -11.0232 -11.8821 87.272
lradius 88.3607
lwrist 19.2384
lhand -10.1025 -12.4888
lfingers 7.12502
lthumb 15.885 16.8796
rfemur -18.8307 4.58756 25.0578
rtibia 47.9818
rfoot -23.5789 -0.980472
rtoes -12.6289
lfemur -18.8639 0.847733 -18.9203
ltibia 56.7678
lfoot -26.7285 5.24317
ltoes -16.2158
69
root 10.1489 17.1511 0.349144 -14.3678 81.9688 -386.889
lowerback 18.7847 -0.138288 4.08277
upperback -1.11335 0.494312 -2.34464
thorax -11.7897 -0.108176 -5.08982
lowerneck 3.19748 1.38933 -6.33905
upperneck -5.08331 1.58691 0.791309
head -2.22796 0.902836 1.29847
rclavicle -1.39149e-014 2.3059e-014
rhumerus 1.83593 31.6674 -95.3845
rradius 66.7374
rwrist 1.26531
rhand -34.609 29.4856
rfingers 7.12502
rthumb -7.76743 -0.351763
lclavicle -1.39149e-014 2.3059e-014
lhumerus -10.41 -13.576 86.7847
lradius 91.4681
lwrist 18.7326
lhand -9.7537 -12.8811
lfingers 7.12502
lthumb 16.2208 16.4603
rfemur -15.9605 4.63903 24.8813
rtibia 44.6523
rfoot -20.0704 -1.06546
rtoes -12.0252
lfemur -16.5964 1.33738 -18.8861
ltibia 54.5996
lfoot -22.7953 4.7127
ltoes -15.3992
70
root 10.4743 17.3603 0.357781 -13.8252 81.6828 -386.065
lowerback 17.2945 -0.000548429 4.3589
upperback -1.41563 0.668556 -2.41586
thorax -11.2491 -0.0370841 -5.3393
lowerneck 4.02292 1.57268 -6.96624
upperneck -3.91683 1.75443 1.15052
head -2.01723 0.959012 1.51677
rclavicle 1.63003e-014 -3.49861e-014
rhumerus 3.64014 33.263 -93.9432
rradius 68.7668
rwrist 0.560534
rhand -35.0146 30.2261
rfingers 7.12502
rthumb -8.15883 0.403665
lclavicle 1.63003e-014 -3.49861e-014
lhumerus -9.76544 -15.3003 86.2529
lradius 94.2411
lwrist 18.283
lhand -9.35751 -13.4049
lfingers 7.12502
lthumb 16.6023 15.9049
rfemur -13.2833 4.65558 24.6827
rtibia 41.4336
rfoot -15.8895 -1.44178
rtoes -12.1003
lfemur -14.5656 1.75377 -18.8582
ltibia 52.684
lfoot -18.2385 4.17106
ltoes -14.9204
71
root 10.8016 17.5771 0.368403 -13.4329 81.4161 -385.375
lowerback 15.8195 0.142078 4.60121
upperback -1.64899 0.841707 -2.45728
thorax -10.6331 0.0442729 -5.52741
lowerneck 4.50828 1.7533 -7.62004
upperneck -2.596 1.94202 1.52278
head -1.69962 1.02257 1.74449
rclavicle -2.3059e-014 1.74931e-014
rhumerus 5.43415 34.6352 -92.3355
rradius 71.1259
rwrist -0.375034
rhand -35.0927 30.2903
rfingers 7.12502
rthumb -8.23426 0.470732
lclavicle -2.3059e-014 1.74931e-014
lhumerus -8.84434 -16.9887 85.6152
lradius 96.575
lwrist 18.0347
lhand -8.90478 -13.9611
lfingers 7.12502
lthumb 17.0381 15.3117
rfemur -10.7855 4.7325 24.5283
rtibia 38.4896
rfoot -11.1102 -2.269
rtoes -12.2026
lfemur -12.7172 2.1698 -18.7956
ltibia 51.0598
lfoot -13.2326 3.63246
ltoes -14.5134
72
root 11.12 17.8018 0.379849 -13.158 81.18 -384.777
lowerback 14.5123 0.268584 4.82191
upperback -1.83085 0.992382 -2.49248
thorax -10.0555 0.118934 -5.6891
lowerneck 4.68672 1.92754 -8.25056
upperneck -1.1309 2.14897 1.87689
head -1.2852 1.09324 1.96424
rclavicle -1.78906e-015 1.27222e-014
rhumerus 7.27572 35.6889 -90.7007
rradius 73.5319
rwrist -1.33209
rhand -34.828 29.9961
rfingers 7.12502
rthumb -7.97881 0.166716
lclavicle -1.78906e-015 1.27222e-014
lhumerus -7.59692 -18.5965 84.8416
lradius 98.5362
lwrist 17.9323
lhand -8.50959 -14.4675
lfingers 7.12502
lthumb 17.4185 14.7721
rfemur -8.58249 4.85467 24.4072
rtibia 36.049
rfoot -5.87105 -3.50056
rtoes -12.1269
lfemur -11.1334 2.55977 -18.7222
ltibia 49.8745
lfoot -8.05357 3.09327
ltoes -14.1805
